<svg height="729.04651" viewBox="0 0 738 729.04651" width="738" xmlns="http://www.w3.org/2000/svg">
    <g transform="translate(-231 -85.47675)">
        <path
            d="m781.44466 258.424h-3.99878v-109.54532a63.40186 63.40186 0 0 0 -63.4018-63.40193h-232.08673a63.40186 63.40186 0 0 0 -63.402 63.4017v600.9744a63.40189 63.40189 0 0 0 63.4018 63.40191h232.08663a63.40187 63.40187 0 0 0 63.402-63.40167v-413.45285h3.99878z"
            fill="#e6e6e6" />
        <path
            d="m763.95107 149.32105v600.09a47.35073 47.35073 0 0 1 -47.35 47.35h-233.2a47.35085 47.35085 0 0 1 -47.35-47.35v-600.09a47.35089 47.35089 0 0 1 47.35-47.35h28.29a22.50661 22.50661 0 0 0 20.83 30.99h132.96a22.50674 22.50674 0 0 0 20.83-30.99h30.29a47.35088 47.35088 0 0 1 47.35 47.35z"
            fill="#fff" />
        <path
            d="m535.60344 266.51629h-35.8121a11.14181 11.14181 0 0 1 -11.12921-11.12921v-35.81193a11.1418 11.1418 0 0 1 11.12921-11.12921h35.8121a11.1418 11.1418 0 0 1 11.1292 11.12921v35.81193a11.1418 11.1418 0 0 1 -11.1292 11.12921z"
            fill="#dc965a" />
        <path
            d="m617.90712 266.51629h-35.81212a11.1418 11.1418 0 0 1 -11.12921-11.12921v-35.81193a11.1418 11.1418 0 0 1 11.12921-11.12921h35.8121a11.1418 11.1418 0 0 1 11.1292 11.12921v35.81193a11.1418 11.1418 0 0 1 -11.12918 11.12921z"
            fill="#dc965a" />
        <path
            d="m700.2108 266.51629h-35.8121a11.1418 11.1418 0 0 1 -11.12921-11.12921v-35.81193a11.1418 11.1418 0 0 1 11.12921-11.12921h35.8121a11.1418 11.1418 0 0 1 11.1292 11.12921v35.81193a11.1418 11.1418 0 0 1 -11.1292 11.12921z"
            fill="#e6e6e6" />
        <path
            d="m535.60344 358.025h-35.8121a11.1418 11.1418 0 0 1 -11.12921-11.12921v-35.81195a11.14181 11.14181 0 0 1 11.12921-11.12921h35.8121a11.1418 11.1418 0 0 1 11.1292 11.12921v35.81193a11.1418 11.1418 0 0 1 -11.1292 11.12923z"
            fill="#e6e6e6" />
        <path
            d="m617.90712 358.025h-35.81212a11.1418 11.1418 0 0 1 -11.12921-11.12921v-35.81195a11.1418 11.1418 0 0 1 11.12921-11.12921h35.8121a11.1418 11.1418 0 0 1 11.1292 11.12921v35.81193a11.1418 11.1418 0 0 1 -11.12918 11.12923z"
            fill="#e6e6e6" />
        <path
            d="m700.2108 358.025h-35.8121a11.1418 11.1418 0 0 1 -11.12921-11.12921v-35.81195a11.1418 11.1418 0 0 1 11.12921-11.12921h35.8121a11.1418 11.1418 0 0 1 11.1292 11.12921v35.81193a11.1418 11.1418 0 0 1 -11.1292 11.12923z"
            fill="#e6e6e6" />
        <path
            d="m535.60344 449.51629h-35.8121a11.14181 11.14181 0 0 1 -11.12921-11.12921v-35.81193a11.1418 11.1418 0 0 1 11.12921-11.12921h35.8121a11.1418 11.1418 0 0 1 11.1292 11.12921v35.81193a11.1418 11.1418 0 0 1 -11.1292 11.12921z"
            fill="#e6e6e6" />
        <path
            d="m617.90712 449.51629h-35.81212a11.1418 11.1418 0 0 1 -11.12921-11.12921v-35.81193a11.1418 11.1418 0 0 1 11.12921-11.12921h35.8121a11.1418 11.1418 0 0 1 11.1292 11.12921v35.81193a11.1418 11.1418 0 0 1 -11.12918 11.12921z"
            fill="#e6e6e6" />
        <path
            d="m700.2108 449.51629h-35.8121a11.1418 11.1418 0 0 1 -11.12921-11.12921v-35.81193a11.1418 11.1418 0 0 1 11.12921-11.12921h35.8121a11.1418 11.1418 0 0 1 11.1292 11.12921v35.81193a11.1418 11.1418 0 0 1 -11.1292 11.12921z"
            fill="#e6e6e6" />
        <path
            d="m535.60344 541.025h-35.8121a11.1418 11.1418 0 0 1 -11.12921-11.12921v-35.81195a11.14181 11.14181 0 0 1 11.12921-11.12921h35.8121a11.1418 11.1418 0 0 1 11.1292 11.12921v35.81193a11.1418 11.1418 0 0 1 -11.1292 11.12923z"
            fill="#e6e6e6" />
        <path
            d="m617.90712 541.025h-35.81212a11.1418 11.1418 0 0 1 -11.12921-11.12921v-35.81195a11.1418 11.1418 0 0 1 11.12921-11.12921h35.8121a11.1418 11.1418 0 0 1 11.1292 11.12921v35.81193a11.1418 11.1418 0 0 1 -11.12918 11.12923z"
            fill="#e6e6e6" />
        <path
            d="m700.2108 541.025h-35.8121a11.1418 11.1418 0 0 1 -11.12921-11.12921v-35.81195a11.1418 11.1418 0 0 1 11.12921-11.12921h35.8121a11.1418 11.1418 0 0 1 11.1292 11.12921v35.81193a11.1418 11.1418 0 0 1 -11.1292 11.12923z"
            fill="#e6e6e6" />
        <path
            d="m640.94146 530.4129h-35.812a11.64255 11.64255 0 0 1 -11.62939-11.62939v-35.812a11.64246 11.64246 0 0 1 11.62939-11.62891h35.812a11.64224 11.64224 0 0 1 11.62915 11.62891v35.812a11.64234 11.64234 0 0 1 -11.62915 11.62939z"
            fill="#dc965a" />
        <path
            d="m471.496 622.82844a10.342 10.342 0 0 0 3.69829-15.421l7.73338-75.61094h-16.71267l-6.14591 73.83019a10.3981 10.3981 0 0 0 11.42691 17.20175z"
            fill="#ffb8b8" />
    </g>
    <circle cx="255.84119" cy="380.94671" fill="#ffb8b8" r="23.64504" />
    <path
        d="m491.29262 575.82991a4.32432 4.32432 0 0 1 -4.16765-3.1758c-1.89438-6.88278-6.82308-18.51986-14.64882-34.58971a28.65183 28.65183 0 0 1 16.27057-39.55789 28.63888 28.63888 0 0 1 36.80115 18.24393c6.0658 19.01719 5.773 39.38819 5.3654 47.26282a4.34283 4.34283 0 0 1 -3.40214 4.00971l-35.28941 7.70634a4.31078 4.31078 0 0 1 -.9291.1006z"
        fill="#ccc" transform="translate(-231 -85.47675)" />
    <path d="m294.466 714.884 11.803-.001 5.615-45.524-17.42.001z" fill="#ffb8b8" />
    <path
        d="m522.93733 796.98753h37.09374a0 0 0 0 1 0 0v14.33167a0 0 0 0 1 0 0h-22.76207a14.33167 14.33167 0 0 1 -14.33167-14.33167 0 0 0 0 1 0 0z"
        fill="#2f2e41" transform="matrix(-1 .00004573 -.00004573 -1 852.00511 1522.80528)" />
    <path d="m176.447 699.587 10.343 5.686 26.854-37.186-15.265-8.392z" fill="#ffb8b8" />
    <path
        d="m401.10879 788.93951h37.09375a0 0 0 0 1 0 0v14.33167a0 0 0 0 1 0 0h-22.7621a14.33165 14.33165 0 0 1 -14.33165-14.33165 0 0 0 0 1 0-.00002z"
        fill="#2f2e41" transform="matrix(-.87629861 -.48176836 .48176836 -.87629861 172.861 1610.43142)" />
    <path
        d="m524.91492 775.09208a4.33167 4.33167 0 0 1 -4.292-3.77467l-14.76045-113.74215a2.4068 2.4068 0 0 0 -4.49435-.85271l-61.51561 111.60709a4.3558 4.3558 0 0 1 -5.336 1.95832l-13.40851-5.10873a4.33179 4.33179 0 0 1 -2.47022-5.68128l42.61335-104.682a3.33683 3.33683 0 0 0 .21764-.8292c5.77177-44.67273 20.457-67.39033 24.82022-73.28878a3.35482 3.35482 0 0 0 .47736-3.05452l-.59981-1.79943a4.32994 4.32994 0 0 1 .83367-4.21372c15.72223-17.90783 43.12549-8.136 43.40048-8.03539l.13726.05076.086.11752c30.72713 42.14 19.36622 179.00964 16.77683 206.019a4.32027 4.32027 0 0 1 -3.97985 3.89877l-18.16966 1.39893c-.11283.00843-.22494.01219-.33635.01219z"
        fill="#2f2e41" transform="translate(-231 -85.47675)" />
    <path
        d="m578.7642 493.88965a10.13308 10.13308 0 0 0 -.23037 1.579l-41.35538 23.85776-10.052-5.78677-10.716 14.02882 16.79955 11.97365a7.70167 7.70167 0 0 0 9.24024-.22512l42.6445-33.64254a10.10562 10.10562 0 1 0 -6.33049-11.7848z"
        fill="#ffb8b8" transform="translate(-231 -85.47675)" />
    <path
        d="m535.7959 520.45634-13.3659 17.32289a4.3322 4.3322 0 0 1 -6.55018.35878l-15.13115-15.71252a12.03133 12.03133 0 0 1 14.755-19.00779l18.97778 10.61169a4.3322 4.3322 0 0 1 1.31446 6.42695z"
        fill="#ccc" transform="translate(-231 -85.47675)" />
    <path
        d="m483.99133 550.55265-21.53172-3.88793a4.33221 4.33221 0 0 1 -3.33464-5.64922l6.98015-20.66671a12.03133 12.03133 0 0 1 23.667 4.34515l-.681 21.73247a4.3322 4.3322 0 0 1 -5.09977 4.12624z"
        fill="#ccc" transform="translate(-231 -85.47675)" />
    <path
        d="m490.58363 460.98481c6.07728 4.15938 14.05689 8.435 20.2639 4.00558a11.29522 11.29522 0 0 0 3.707-13.02047c-2.97212-8.4993-11.138-12.2411-18.94654-15.10926-10.15117-3.72861-21.20429-6.69488-31.68372-4.02464s-19.74087 12.81642-17.84913 23.46398c1.52129 8.56253 9.59817 15.68722 8.45156 24.30792-1.154 8.676-10.91111 13.24287-19.52511 14.79349s-18.25326 2.04884-24.44381 8.23614c-7.89716 7.893-5.9251 22.00094 1.50581 30.33441s18.64456 12.111 29.51059 14.67893c14.39682 3.40241 29.96811 5.19052 43.64145-.45612s24.31376-20.84675 20.35281-35.1c-1.6731-6.02056-5.61442-11.10875-9.42349-16.06227s-7.66612-10.13345-9.1191-16.21089c-1.21082-5.06453-.31464-10.94469 3.04389-14.74367a4.27156 4.27156 0 0 0 .57223-4.993z"
        fill="#2f2e41" transform="translate(-231 -85.47675)" />
    <path d="m500 716.459h-12.26l-5.832-47.288h18.094z" fill="#ffb8b8" />
    <path
        d="m478.98321 712.95555h23.64387a0 0 0 0 1 0 0v14.88687a0 0 0 0 1 0 0h-38.53073a0 0 0 0 1 0 0 14.88686 14.88686 0 0 1 14.88686-14.88687z"
        fill="#2f2e41" />
    <path d="m546 716.459h-12.26l-5.832-47.288h18.094z" fill="#ffb8b8" />
    <path
        d="m524.98321 712.95555h23.64387a0 0 0 0 1 0 0v14.88687a0 0 0 0 1 0 0h-38.53073a0 0 0 0 1 0 0 14.88686 14.88686 0 0 1 14.88686-14.88687z"
        fill="#2f2e41" />
    <path
        d="m775.50276 661.09729a10.7427 10.7427 0 0 1 -2.06222-16.343l-8.07254-114.55787 23.253 2.25509.63868 112.18665a10.80091 10.80091 0 0 1 -13.757 16.45913z"
        fill="#ffb8b8" transform="translate(-231 -85.47675)" />
    <path
        d="m730.421 778.113-13.49634-.64356a4.499 4.499 0 0 1 -4.28589-4.46289l-.94189-136.55664a4.50111 4.50111 0 0 1 5.14648-4.48535l53.99366 7.83789a4.47382 4.47382 0 0 1 3.85351 4.41992l6.94434 126.53418a4.50047 4.50047 0 0 1 -4.5 4.53418h-14.55008a4.47888 4.47888 0 0 1 -4.44531-3.80078l-8.97705-57.06738a3.5 3.5 0 0 0 -6.93287.12793l-7.12622 59.60254a4.5171 4.5171 0 0 1 -4.46875 3.96582q-.1062.00004-.21359-.00586z"
        fill="#2f2e41" transform="translate(-231 -85.47675)" />
    <path
        d="m739.922 644.22827c-11.89942-6.61133-21.197-8.34863-25.67993-8.7959a4.418 4.418 0 0 1 -3.05347-1.67285 4.47791 4.47791 0 0 1 -.93115-3.40137l12.9375-96.05078a33.21917 33.21917 0 0 1 19.36352-25.957 32.30589 32.30589 0 0 1 31.39551 2.46094q.665.44238 1.30518.90332a33.17817 33.17817 0 0 1 12.63647 34.57324c-7.93359 32.45508-10.65869 85.66211-11.12451 95.999a4.46544 4.46544 0 0 1 -2.918 4.00488 45.08471 45.08471 0 0 1 -15.22583 2.71094 38.12461 38.12461 0 0 1 -18.70529-4.77442z"
        fill="#dc965a" transform="translate(-231 -85.47675)" />
    <path
        d="m770.63178 568.68944a4.4817 4.4817 0 0 1 -1.85872-3.40066l-1.70384-30.87614a12.39862 12.39862 0 0 1 24.34642-3.92684l7.48456 27.6049a4.50507 4.50507 0 0 1 -3.16561 5.52077l-21.29059 5.77253a4.48288 4.48288 0 0 1 -3.81222-.69456z"
        fill="#dc965a" transform="translate(-231 -85.47675)" />
    <circle cx="519.74361" cy="385.27072" fill="#ffb8b8" r="24.56103" />
    <path
        d="m661.73989 519.00209a10.52582 10.52582 0 0 1 .23929 1.64013l42.95745 24.782 10.44142-6.01094 11.13116 14.57228-22.33714 15.92054-49.00791-38.66269a10.49579 10.49579 0 1 1 6.57573-12.24132z"
        fill="#ffb8b8" transform="translate(-231 -85.47675)" />
    <path
        d="m706.47091 543.31688a4.48168 4.48168 0 0 1 1.29315-3.65337l21.8634-21.86849a12.39863 12.39863 0 0 1 19.16808 15.51623l-15.57 23.9922a4.50508 4.50508 0 0 1 -6.22447 1.32511l-18.50426-12.00856a4.48287 4.48287 0 0 1 -2.0259-3.30312z"
        fill="#dc965a" transform="translate(-231 -85.47675)" />
    <path
        d="m768.12421 490.179c-4.582 4.88078-13.09132 2.26067-13.68835-4.40717a8.05557 8.05557 0 0 1 .01013-1.5557c.30826-2.95357 2.01461-5.635 1.60587-8.7536a4.59045 4.59045 0 0 0 -.8401-2.14891c-3.65125-4.88934-12.22228 2.18687-15.6682-2.2393-2.113-2.714.3708-6.98712-1.25066-10.0205-2.14005-4.00358-8.47881-2.0286-12.45387-4.22116-4.42276-2.43948-4.15822-9.22524-1.24686-13.35269 3.55052-5.03359 9.77572-7.71951 15.92335-8.10661s12.25292 1.27475 17.9923 3.51145c6.52108 2.54134 12.98768 6.05351 17.00066 11.78752 4.88022 6.97317 5.34986 16.34794 2.90917 24.50175-1.48465 4.96008-6.55178 11.01927-10.29344 15.00492z"
        fill="#2f2e41" transform="translate(-231 -85.47675)" />
    <path d="m968 814.52325h-736a1 1 0 0 1 0-2h736a1 1 0 0 1 0 2z" fill="#ccc" transform="translate(-231 -85.47675)" />
</svg>